Coordinates
version=1
nRows=11
nColumns=40
inDegrees=yes

Units are S.I. units (second, meters, Newtons, ...)
If the header above contains a line with 'inDegrees', this indicates whether rotational values are in degrees (yes) or radians (no).

endheader
time	pelvis_tilt	pelvis_list	pelvis_rotation	pelvis_tx	pelvis_ty	pelvis_tz	hip_flexion_r	hip_adduction_r	hip_rotation_r	knee_angle_r	knee_angle_r_beta	ankle_angle_r	subtalar_angle_r	mtp_angle_r	hip_flexion_l	hip_adduction_l	hip_rotation_l	knee_angle_l	knee_angle_l_beta	ankle_angle_l	subtalar_angle_l	mtp_angle_l	lumbar_extension	lumbar_bending	lumbar_rotation	arm_flex_r	arm_add_r	arm_rot_r	elbow_flex_r	pro_sup_r	wrist_flex_r	wrist_dev_r	arm_flex_l	arm_add_l	arm_rot_l	elbow_flex_l	pro_sup_l	wrist_flex_l	wrist_dev_l
      0.00000000	     42.28611041	    -11.14051178	    -13.32921908	      0.01241350	      1.32119466	      0.00040828	      9.10104803	    -17.11857117	     -6.41174611	     89.78436563	      1.56703280	    -15.23082794	    -30.55524381	      0.00000000	      3.01195043	    -22.97189113	    -22.08980869	     54.22139726	      0.94634191	     -4.93585204	     -1.08570300	      0.00000000	    -57.73531626	      2.35807024	     -3.31391705	      3.16042338	      1.36689187	     -6.91701447	     36.08202635	     82.87787330	      0.00000000	      0.00000000	     -8.74965068	      4.60785372	    -14.11930072	     51.67236264	     81.88041556	      0.00000000	      0.00000000
      0.01700000	     42.00196272	    -11.68784914	    -12.67137322	      0.01235395	      1.32085491	     -0.00085762	     10.80154129	    -16.42734841	     -6.29888877	     91.83716278	      1.60286087	    -13.50229402	    -30.89436000	      0.00000000	      1.20254679	    -22.71630284	    -22.11361232	     51.69441501	      0.90223775	     -5.87172582	     -1.02975771	      0.00000000	    -57.37421032	      3.36138133	     -4.49433902	      3.00838809	      1.34970237	     -5.38500752	     37.35587341	     83.01067573	      0.00000000	      0.00000000	     -7.99470575	      4.46193260	    -15.08120362	     48.87066439	     82.02143350	      0.00000000	      0.00000000
      0.03300000	     41.73233533	    -12.14256633	    -12.35241029	      0.01225434	      1.32043807	     -0.00183468	     12.66903610	    -15.84015904	     -5.82364464	     94.00257988	      1.64065452	    -11.30890477	    -30.82539170	      0.00000000	     -0.84752108	    -22.42479130	    -22.68948782	     48.95582549	      0.85444034	     -7.31955784	     -0.78201710	      0.00000000	    -56.98073510	      4.01612200	     -5.57879952	      2.89890918	      1.06087871	     -3.28321022	     38.66602442	     83.14218659	      0.00000000	      0.00000000	     -7.05453767	      4.34430938	    -16.08036831	     45.76960685	     82.08950028	      0.00000000	      0.00000000
      0.05000000	     41.58641092	    -12.38800736	    -13.21017536	      0.01196583	      1.32003198	     -0.00154305	     15.07903394	    -15.22307870	     -3.85240479	     96.19812194	      1.67897396	     -8.71058820	    -29.51175390	      0.00000000	     -3.70306382	    -22.04830730	    -25.04246554	     46.20738196	      0.80647095	     -8.78013856	     -0.35041945	      0.00000000	    -56.74322716	      3.59747822	     -6.41500273	      3.15397118	      0.79888909	     -0.97658672	     39.59134925	     82.81949733	      0.00000000	      0.00000000	     -6.58183880	      4.16909944	    -16.76325750	     43.29635678	     81.49567501	      0.00000000	      0.00000000
      0.06700000	     41.08913477	    -12.71861045	    -13.38493190	      0.01201783	      1.31936710	     -0.00185048	     17.57986003	    -14.66993618	     -3.03203446	     98.00216549	      1.71046046	     -6.30378097	    -29.30480994	      0.00000000	     -5.62233618	    -21.96286919	    -26.24404056	     43.96014981	      0.76724935	    -10.35400801	      0.13500497	      0.00000000	    -56.28008707	      3.90239634	     -7.12971747	      3.29106017	      0.64583821	      0.63431792	     40.58094634	     82.64555857	      0.00000000	      0.00000000	     -5.90193185	      3.94142026	    -16.82125461	     40.68454635	     81.14382570	      0.00000000	      0.00000000
      0.08300000	     40.52385690	    -13.03060886	    -13.12900284	      0.01216235	      1.31860901	     -0.00255890	     20.00287209	    -14.34682883	     -2.92646413	     99.50099126	      1.73661991	     -3.95897426	    -29.85495131	      0.00000000	     -7.07894977	    -21.97320140	    -26.71994337	     42.10909630	      0.73494238	    -11.72631631	      0.52967248	      0.00000000	    -55.83128317	      4.55604347	     -7.91237767	      3.39643357	      0.55521227	      1.87857709	     41.60886244	     82.60354925	      0.00000000	      0.00000000	     -5.30870447	      3.81301506	    -16.83555049	     38.42643019	     81.06185197	      0.00000000	      0.00000000
      0.10000000	     39.94278512	    -13.10536261	    -13.96327876	      0.01221381	      1.31775126	     -0.00214971	     22.96984070	    -13.85629754	     -1.48573904	    100.81671964	      1.75958370	     -2.17695605	    -29.24838463	      0.00000000	     -8.95878713	    -21.72467859	    -28.62470268	     40.34517615	      0.70415616	    -12.97994567	      1.15502447	      0.00000000	    -55.31701014	      4.23262267	     -8.26336631	      3.62309445	      0.44756533	      3.02118431	     42.50767495	     82.58833021	      0.00000000	      0.00000000	     -4.88331385	      3.58678693	    -16.42240541	     36.50537125	     80.54685385	      0.00000000	      0.00000000
      0.11700000	     39.50651808	    -13.25753012	    -13.84250195	      0.01247289	      1.31710321	     -0.00258933	     25.24008590	    -13.75037652	     -1.38269036	    101.39675110	      1.76970716	     -1.67819305	    -29.61685189	      0.00000000	    -10.16975794	    -21.62604579	    -28.93828638	     39.24719107	      0.68499271	    -13.31949645	      1.55398744	      0.00000000	    -54.96048075	      4.64056275	     -8.88147478	      3.67308981	      0.31391520	      3.68880757	     43.69037015	     82.56770690	      0.00000000	      0.00000000	     -4.64000547	      3.52827330	    -16.55295719	     35.20484347	     80.36152259	      0.00000000	      0.00000000
      0.13300000	     39.12473932	    -13.24772190	    -14.04883251	      0.01269339	      1.31651479	     -0.00266450	     27.59378756	    -13.70643105	     -0.93637380	    101.59518887	      1.77317055	     -2.11553817	    -29.88242068	      0.00000000	    -11.42124423	    -21.37174877	    -29.54251692	     38.40937629	      0.67037008	    -13.28292610	      2.10421271	      0.00000000	    -54.62782441	      4.67133365	     -9.35273239	      3.74019170	      0.19250677	      4.17236057	     44.84451713	     82.61632243	      0.00000000	      0.00000000	     -4.52251441	      3.47692294	    -16.67378460	     34.25599612	     80.09269035	      0.00000000	      0.00000000
      0.15000000	     38.80254010	    -13.31671988	    -14.11223807	      0.01298305	      1.31608414	     -0.00283310	     29.60487007	    -13.62876200	     -0.71357788	    101.48367551	      1.77122427	     -2.57514354	    -29.99201918	      0.00000000	    -12.41754119	    -21.29692185	    -29.84022928	     38.04140988	      0.66394785	    -12.99823804	      2.27346729	      0.00000000	    -54.37004155	      4.81491523	     -9.74052639	      3.79056338	      0.13796737	      4.51496494	     45.88485580	     82.65168286	      0.00000000	      0.00000000	     -4.57117076	      3.44734016	    -16.77383322	     33.77161580	     79.86155974	      0.00000000	      0.00000000
      0.16700000	     38.59193188	    -13.37991056	    -14.14983747	      0.01322092	      1.31580208	     -0.00279008	     31.36926344	    -13.50716896	     -0.48923518	    101.17935239	      1.76591283	     -3.18117720	    -29.98044306	      0.00000000	    -13.19264219	    -21.34996033	    -29.90034453	     38.17234883	      0.66623317	    -12.70650284	      2.38873421	      0.00000000	    -54.21529701	      4.86373635	    -10.04633619	      3.77486366	      0.08491158	      4.91507660	     46.93856858	     82.78789038	      0.00000000	      0.00000000	     -4.67545183	      3.39847965	    -16.91473856	     33.49368457	     79.66983542	      0.00000000	      0.00000000
